PathFileType	4	(X/Y/Z)	C:\Users\WrightLab\Desktop\Jo\P1.2Trial16.trc
DataRate	CameraRate	NumFrames	NumMarkers	Units	OrigDataRate	OrigDataStartFrame	OrigNumFrames
100.00	100.00	       15	19	mm	100.00	1	       463
Frame#	Time	Headset_Front			Headset_Back			Headset_Left			Headset_Right			Left_Shoulder			Right_Shoulder			Sternum			C7			Left Elbow			Right Elbow			Left Wrist			Right Wrist			Left ASIS			Right ASIS			S2			Left Knee			Right Knee			Left Ankle			Right Ankle			
		X1	Y1	Z1	X2	Y2	Z2	X3	Y3	Z3	X4	Y4	Z4	X5	Y5	Z5	X6	Y6	Z6	X7	Y7	Z7	X8	Y8	Z8	X9	Y9	Z9	X10	Y10	Z10	X11	Y11	Z11	X12	Y12	Z12	X13	Y13	Z13	X14	Y14	Z14	X15	Y15	Z15	X16	Y16	Z16	X17	Y17	Z17	X18	Y18	Z18	X19	Y19	Z19	

1	0.000	-593.79620	1324.57080	-775.56842	-561.71112	1479.35437	-1037.63306	-463.56906	1405.51453	-925.13550	-688.10486	1374.08582	-883.50977	-345.85016	1208.18896	-986.16510	-767.91626	1198.42590	-1018.29987	-571.70764	1135.58350	-890.12555	-548.75061	1271.34265	-1114.60388	-271.50345	926.58765	-1059.56421	-847.33582	950.17529	-1036.80396	-248.51915	713.98651	-928.49927	-905.84753	720.22351	-902.18176	-446.56973	824.73999	-885.40857	-705.12384	811.26929	-982.47571	-476.91074	881.80811	-1194.95227	-529.61548	449.05289	-808.70984	-692.67255	374.69058	-1084.99670	-536.38214	138.65468	-725.90741				
2	0.010	-593.96069	1323.56433	-767.19537	-563.56195	1477.80859	-1030.03186	-465.27103	1403.70190	-916.13843	-689.42706	1373.08081	-874.89636	-347.55344	1205.89331	-976.58557	-769.85022	1197.49731	-1009.82593	-574.22675	1133.45862	-881.47803	-550.80200	1269.56458	-1104.64490	-274.51218	924.53711	-1051.29346	-848.93872	949.00555	-1028.67847	-250.68631	712.04169	-920.78619	-906.12006	717.89630	-893.40637	-450.82422	821.91791	-875.49994	-709.50537	811.94385	-973.53510	-479.17191	879.43207	-1184.22034	-534.22974	447.24170	-800.75897	-692.86926	372.85040	-1079.87000	-543.18402	142.74452	-711.91949				
3	0.020	-595.61926	1322.74915	-760.00647	-565.00146	1476.49329	-1021.26031	-466.21667	1402.19360	-904.75629	-690.50525	1372.27722	-866.04034	-348.97610	1204.01575	-967.74097	-772.08679	1197.19324	-1001.93640	-576.31482	1132.01599	-871.96527	-552.06665	1267.39233	-1095.08557	-276.87378	921.97333	-1042.01599	-849.88379	947.80591	-1020.56244	-252.44200	708.85846	-913.62695	-907.23718	716.64722	-886.25604	-452.89438	821.83240	-864.76691	-714.30359	810.62152	-965.20313	-481.38052	877.43860	-1173.69861	-539.92151	448.08664	-793.56860	-693.97644	372.42282	-1072.43335	-548.85291	145.73918	-699.85242				
4	0.030	-596.96783	1322.43994	-750.51892	-566.28986	1475.40955	-1012.87598	-467.29587	1401.28198	-897.77985	-691.23596	1370.71252	-856.83276	-350.72501	1201.16504	-957.66608	-772.88483	1195.94019	-993.52118	-579.01837	1130.63965	-862.45148	-552.01617	1266.52893	-1086.96033	-278.85626	918.96594	-1033.92944	-851.07910	946.63977	-1012.53674	-255.32037	706.22266	-905.23181	-907.46167	714.66718	-878.06433	-456.31723	819.38715	-855.35553	-717.80890	810.05487	-956.70386	-483.66287	875.31958	-1162.96777	-545.20612	444.89676	-786.15137	-695.22351	371.67532	-1065.34680	-555.05255	145.88945	-689.31891				
5	0.040	-597.32434	1321.89050	-740.50812	-567.39874	1474.32922	-1004.54950	-468.34030	1400.20642	-889.60651	-692.24719	1370.11938	-847.75134	-352.28915	1198.55005	-947.53699	-775.03717	1195.62085	-985.62958	-581.22595	1130.01270	-853.01636	-555.39899	1265.05579	-1077.66858	-282.00305	917.29895	-1023.93719	-852.08252	945.56659	-1004.78131	-257.10342	703.16528	-898.12561	-907.66986	713.36127	-871.53546	-459.90927	817.79279	-841.67682	-720.80469	808.86182	-949.26141	-486.06076	873.22729	-1152.68555	-547.88849	447.51511	-770.19507	-697.72809	372.03635	-1056.83777	-559.72607	143.74159	-680.10132				
6	0.050	-597.69757	1320.54480	-731.83191	-568.42932	1473.09741	-995.55536	-469.19165	1399.68506	-880.58502	-692.95886	1369.45728	-838.84528	-354.10919	1197.01660	-937.96338	-775.62866	1194.20874	-976.35352	-583.58112	1129.39551	-843.51648				-284.58371	914.03656	-1012.70105	-852.62274	944.47357	-996.91064	-258.57156	700.46332	-889.53058	-907.33136	711.46655	-863.75470	-461.76715	816.03662	-832.14880	-725.15436	809.02881	-935.28882	-488.73907	871.23615	-1142.36182	-554.39459	445.82684	-761.43750	-698.93243	369.22586	-1057.03210	-561.31494	140.48987	-671.66394				
7	0.060	-598.19482	1321.53479	-723.41113	-569.09155	1472.45190	-987.37000	-469.44751	1398.89355	-871.74536	-693.24188	1368.88892	-829.39484	-354.69620	1194.37817	-928.68475	-776.98212	1193.52881	-967.51111	-584.47375	1128.26721	-833.74164				-286.47815	912.03674	-1005.10138	-853.15948	943.51587	-988.92517	-259.70782	698.12231	-881.93878	-907.07831	709.98224	-857.57526	-465.56757	814.77368	-820.92383	-728.83942	809.98975	-928.81500				-559.88953	444.25995	-751.27734	-702.67224	369.87988	-1046.60974	-563.80176	135.08070	-666.18036				
8	0.070	-597.75006	1320.72351	-712.82513	-569.69891	1471.35120	-978.06085	-470.27686	1398.15125	-862.14246	-693.99384	1368.51501	-820.03900	-355.90375	1192.87695	-918.07294	-777.79755	1193.25317	-959.05933	-586.85779	1127.96521	-824.37372	-555.42334	1261.52063	-1049.39563	-288.14288	909.76270	-996.14667	-853.50940	943.21570	-982.16589	-261.95947	695.54303	-873.07941	-906.66028	708.50629	-851.23578	-470.35352	813.42822	-809.41919	-733.04291	808.24115	-917.32141				-564.19208	442.12570	-738.93005	-704.65973	370.01273	-1039.80127	-566.17719	128.65230	-660.71564				
9	0.080	-599.09143	1321.43909	-703.06335	-570.05005	1470.77966	-969.29895	-470.69064	1398.26648	-853.50031	-694.35498	1369.15833	-810.95850	-356.42789	1191.25586	-908.89624	-778.92426	1192.90381	-949.81018	-588.49500	1127.72876	-813.10046	-555.05817	1259.97144	-1039.07239	-291.50113	907.15326	-983.80432	-853.74573	942.56952	-974.43188	-264.59512	692.80884	-863.12732	-906.56732	706.57898	-844.62805	-473.38940	811.84058	-799.16620	-735.76904	808.37225	-909.41949				-569.22961	441.76422	-726.47974	-708.18817	371.38986	-1029.66223	-567.58868	121.89479	-656.72858				
10	0.090	-599.19672	1321.89417	-693.90509	-570.27539	1470.33899	-960.19855	-470.67838	1397.83350	-844.78790	-694.53571	1369.43091	-801.14178	-357.58295	1189.29822	-898.33649	-779.48999	1193.12585	-940.74005	-589.94379	1128.21021	-802.71429				-293.84085	904.90948	-972.79785	-854.17249	942.09503	-966.68219	-266.10538	690.72266	-855.44720	-906.26257	705.80670	-838.96808	-476.33115	811.75409	-788.24054	-738.41339	809.10162	-898.90631				-572.67267	437.92569	-717.35254	-710.46387	371.88983	-1021.68793	-568.25415	115.14545	-653.07739				
11	0.100	-599.59430	1323.45288	-684.09985	-570.32367	1470.10217	-950.81317	-470.99963	1397.91394	-835.13898	-694.64191	1369.93408	-791.16309	-358.33929	1188.51929	-888.83081	-780.02649	1192.65930	-930.36328	-589.79736	1128.44519	-792.40619	-556.28253	1258.43140	-1018.75037	-296.57086	903.49823	-964.56989	-854.00891	942.75531	-959.66217	-268.59439	688.32544	-846.93762	-905.85834	704.53174	-833.14545	-480.52716	811.67535	-776.54584	-741.18573	808.64545	-887.64374				-575.68182	434.91965	-703.57806	-712.28986	373.18930	-1011.75726	-569.03900	109.13921	-648.77350				
12	0.110	-599.89429	1324.57764	-674.03278	-570.32733	1470.15100	-941.25043	-471.09027	1398.25610	-824.83167	-695.20404	1371.38721	-781.96344	-359.18393	1187.31226	-878.03912	-780.72015	1193.72339	-921.87628	-590.47479	1128.97681	-780.80792	-556.95532	1257.42883	-1006.99481	-298.68497	902.59723	-954.86981	-853.69324	943.09357	-952.19385	-270.78000	686.96252	-837.05377	-905.76813	703.87585	-826.92004	-483.77588	810.35828	-765.91565	-743.55200	810.27216	-876.65833	-504.82419	860.24805	-1065.39148	-579.12006	434.83731	-692.38483	-715.38385	374.40009	-998.62524	-569.75647	106.02673	-640.19073				
13	0.120	-599.70703	1326.19458	-663.54224	-570.29150	1470.54492	-931.91089	-470.99741	1398.95667	-814.22675	-695.24536	1372.76025	-771.89294	-359.40814	1186.66162	-866.84509	-781.25671	1194.85449	-912.19470	-591.54047	1130.33057	-769.96704	-556.17834	1259.11829	-998.40576	-301.70853	901.71198	-944.18817	-852.80536	943.73547	-944.17584	-272.44690	686.47937	-828.11230	-905.43762	703.84216	-821.65057	-486.52203	811.81763	-753.97510	-746.22339	811.52606	-864.02429	-507.42609	859.93890	-1053.59912	-582.33405	433.01865	-682.68787				-571.69690	103.02969	-632.72046				
14	0.130	-600.44226	1328.31641	-652.86938	-570.02704	1471.73511	-922.23175	-471.12970	1399.86145	-805.32520	-696.11859	1374.54846	-761.75891	-359.96039	1186.22656	-856.50800	-781.86395	1196.37854	-901.39862	-592.74597	1131.63513	-759.22412	-557.44336	1260.13574	-988.33636	-304.77307	900.68671	-935.10651	-852.11224	944.76477	-936.35272	-274.84192	685.14026	-819.49091	-905.72900	703.78436	-816.41492	-490.79568	811.90637	-742.05560	-748.72278	814.52026	-849.76239				-584.55475	431.40704	-675.24731				-574.11664	100.18645	-626.32184				
15	0.140	-600.32629	1330.55542	-642.29547				-471.30109	1401.62708	-794.87860	-695.44916	1376.33923	-750.90869	-360.70422	1186.44922	-846.00580	-783.47491	1198.97327	-892.03625	-593.45227	1133.01160	-748.02582	-558.88617	1259.62952	-976.41278	-306.45923	900.38159	-925.12317	-851.29431	946.31775	-928.37170	-276.36392	683.66418	-810.63965	-906.18933	704.52606	-812.08344	-493.52252	813.71381	-730.09283	-750.36346	815.98279	-839.18719	-513.98053	861.13672	-1038.37439	-586.99420	431.53851	-664.79254	-721.13129	381.18045	-968.15222	-577.00848	96.40193	-619.98419				
